<?xml version="1.0" encoding="utf-8"?>
<!-- Generator: Adobe Illustrator 16.0.0, SVG Export Plug-In . SVG Version: 6.00 Build 0)  -->
<!DOCTYPE svg PUBLIC "-//W3C//DTD SVG 1.1//EN" "http://www.w3.org/Graphics/SVG/1.1/DTD/svg11.dtd">
<svg version="1.1" id="Capa_1" xmlns="http://www.w3.org/2000/svg" xmlns:xlink="http://www.w3.org/1999/xlink" x="0px" y="0px"
	 width="26px" height="26px" viewBox="0 0 26 26" enable-background="new 0 0 26 26" xml:space="preserve">
<path fill="#FFFFFF" d="M23.834,5.416c0,0.352-0.006,0.688-0.016,1.012l-7.617-3.809c1.105-0.317,2.541-0.453,4.383-0.453V0
	c-5.092,0-9.751,0.867-9.751,7.583c0,0.999,0.258,1.999,0.622,3.047c-1.308-0.5-2.616-0.881-3.872-0.881C0,9.75,0,17.621,0,20.584
	h2.167c0-0.342,0.005-0.678,0.014-1.014l7.725,3.863c-1.336,0.314-2.883,0.4-4.488,0.4V26c2.925,0,10.833,0,10.833-7.584
	c0-0.65-0.108-1.299-0.325-1.949c-0.759-0.217-1.625-0.543-2.492-0.867c0.325,0.975,0.651,1.949,0.651,2.816
	c0,0.467-0.051,0.885-0.127,1.275l-7.646-7.647c0.39-0.077,0.806-0.128,1.272-0.128c1.469,0,3.303,0.791,5.074,1.557
	c1.93,0.832,3.925,1.693,5.759,1.693c6.666,0,7.584-4.687,7.584-9.75H23.834z M2.24,18.389c0.079-1.074,0.237-2.088,0.525-2.98
	l9.558,6.977c-0.293,0.217-0.611,0.406-0.959,0.566L2.24,18.389z M13.588,20.854c-0.134,0.279-0.294,0.535-0.476,0.766l-9.921-7.244
	c0.444-0.855,1.075-1.535,1.96-1.959L13.588,20.854z M23.748,7.604c-0.102,1.19-0.303,2.148-0.625,2.907l-9.081-6.629
	c0.236-0.271,0.519-0.506,0.849-0.706L23.748,7.604z M14.174,11.766C13.545,10.28,13,8.775,13,7.583
	c0-0.107,0.007-0.205,0.009-0.308l5.716,5.715C18.621,12.993,18.523,13,18.416,13C17.205,13,15.688,12.411,14.174,11.766z
	 M20.119,12.853L13.146,5.88c0.075-0.396,0.181-0.754,0.32-1.077l9.116,6.655C22.007,12.208,21.201,12.648,20.119,12.853z"/>
</svg>
