<?xml version="1.0" encoding="utf-8"?>
<!-- Generator: Adobe Illustrator 16.0.0, SVG Export Plug-In . SVG Version: 6.00 Build 0)  -->
<!DOCTYPE svg PUBLIC "-//W3C//DTD SVG 1.1//EN" "http://www.w3.org/Graphics/SVG/1.1/DTD/svg11.dtd">
<svg version="1.1" id="Capa_1" xmlns="http://www.w3.org/2000/svg" xmlns:xlink="http://www.w3.org/1999/xlink" x="0px" y="0px"
	 width="512px" height="512px" viewBox="0 0 512 512" enable-background="new 0 0 512 512" xml:space="preserve">
<path id="flask-2-icon" fill="#FFFFFF" d="M174.75,70c0-11.046,8.954-20,20-20h122.5c11.046,0,20,8.954,20,20s-8.954,20-20,20
	h-122.5C183.704,90,174.75,81.046,174.75,70z M369.958,462c30.866,0,51.176-32.304,37.802-60.121l-64.847-134.865
	c-18.044-37.528-27.413-78.635-27.413-120.275V120h-39.775c0,28.335-4.785,89.631,31.141,164.348
	c36.037,74.95,49.581,103.666,56.859,118.785c8.104,16.839-15.018,25.674-22.842,9.312l-70.881-148.776h-55.786
	c25.377-63.748,22.002-115.29,22.002-143.667H196.5v26.739c0,41.64-9.369,82.746-27.413,120.273L104.241,401.88
	C90.865,429.696,111.179,462,142.043,462H369.958z"/>
</svg>
