<?xml version="1.0" encoding="utf-8"?>
<!-- Generator: Adobe Illustrator 16.0.0, SVG Export Plug-In . SVG Version: 6.00 Build 0)  -->
<!DOCTYPE svg PUBLIC "-//W3C//DTD SVG 1.1//EN" "http://www.w3.org/Graphics/SVG/1.1/DTD/svg11.dtd">
<svg version="1.1" id="Capa_1" xmlns="http://www.w3.org/2000/svg" xmlns:xlink="http://www.w3.org/1999/xlink" x="0px" y="0px"
	 width="512px" height="512px" viewBox="0 0 512 512" enable-background="new 0 0 512 512" xml:space="preserve">
<path id="thumb-9-icon" fill="#FFFFFF" d="M427.43,102.184l-13.557-4.707c-6.066-1.808-12.448,1.651-14.254,7.721
	c-1.803,6.073,1.652,12.459,7.727,14.258l12.627,4.49c15.785,4.687,17.949,19.324,20.953,41.048l-16.754-5.597
	c-6.074-1.811-12.458,1.658-14.266,7.729c-1.795,6.065,1.658,12.449,7.729,14.25l12.963,4.047
	c16.312,4.85,18.15,18.119,21.943,42.185l-17.997-5.295c-6.067-1.802-12.454,1.653-14.257,7.729
	c-1.804,6.069,1.647,12.452,7.727,14.256l17.272,4.478c14.014,3.896,16.216,19.488,17.59,38.34
	c-55.952-6.686-88.974,9.423-109.837,24.687c18.717,51.348,23.399,129.166-6.472,137.924c-25.799,7.562-32.796-23.829-39.644-45.355
	c-17.963-56.46-41.07-129.463-133.99-141.042l-0.854-163.077c96.056-0.503,116.707-32.24,173.9-38.983
	C388.771,56.224,422.318,67.558,427.43,102.184z M142.739,280.164l-1.003-191.829l-91.901,0.479l1.004,191.83L142.739,280.164z
	 M111.062,129.713c0.044,8.319-6.665,15.097-14.983,15.14c-8.318,0.044-15.097-6.663-15.141-14.982
	c-0.043-8.319,6.666-15.098,14.983-15.141C104.241,114.686,111.019,121.394,111.062,129.713z"/>
</svg>
