<?xml version="1.0" encoding="utf-8"?>
<!-- Generator: Adobe Illustrator 16.0.0, SVG Export Plug-In . SVG Version: 6.00 Build 0)  -->
<!DOCTYPE svg PUBLIC "-//W3C//DTD SVG 1.1//EN" "http://www.w3.org/Graphics/SVG/1.1/DTD/svg11.dtd">
<svg version="1.1" id="Capa_1" xmlns="http://www.w3.org/2000/svg" xmlns:xlink="http://www.w3.org/1999/xlink" x="0px" y="0px"
	 width="512px" height="512px" viewBox="0 0 512 512" enable-background="new 0 0 512 512" xml:space="preserve">
<path id="thumb-9-icon" fill="#FFFFFF" d="M346.286,450.26c-57.228-6.444-78.045-38.072-174.102-38.072V249.109
	c92.859-12.066,115.583-85.188,133.251-141.742c6.735-21.562,13.567-52.99,39.405-45.562c29.917,8.601,25.642,86.443,7.192,137.889
	c20.943,15.153,54.049,31.089,109.966,24.11c-1.276,18.86-3.396,34.463-17.39,38.432l-17.249,4.568
	c-6.069,1.836-9.487,8.237-7.651,14.297c1.834,6.066,8.238,9.488,14.297,7.654l17.97-5.39c-3.668,24.085-5.437,37.364-21.724,42.299
	l-12.941,4.114c-6.061,1.833-9.479,8.235-7.653,14.291c1.839,6.062,8.241,9.498,14.305,7.655l16.726-5.685
	c-2.891,21.74-4.979,36.389-20.739,41.157l-12.603,4.556c-6.064,1.831-9.485,8.235-7.652,14.299
	c1.838,6.061,8.237,9.486,14.295,7.646l13.531-4.778C422.59,443.573,389.104,455.082,346.286,450.26z M50,232.433v191.832h91.903
	V232.433H50z M95.951,398.109c-8.317,0-15.062-6.743-15.062-15.062s6.744-15.062,15.062-15.062c8.318,0,15.062,6.742,15.062,15.062
	S104.27,398.109,95.951,398.109z"/>
</svg>
