<?xml version="1.0" encoding="utf-8"?>
<!-- Generator: Adobe Illustrator 17.0.0, SVG Export Plug-In . SVG Version: 6.00 Build 0)  -->
<!DOCTYPE svg PUBLIC "-//W3C//DTD SVG 1.1//EN" "http://www.w3.org/Graphics/SVG/1.1/DTD/svg11.dtd">
<svg version="1.1" id="Capa_1" xmlns="http://www.w3.org/2000/svg" xmlns:xlink="http://www.w3.org/1999/xlink" x="0px" y="0px"
	 width="612px" height="792px" viewBox="0 0 612 792" enable-background="new 0 0 612 792" xml:space="preserve">
<line fill="none" stroke="#FFFFFF" stroke-width="2" stroke-miterlimit="10" x1="23.625" y1="139.263" x2="23.59" y2="153.866"/>
<line fill="none" stroke="#FFFFFF" stroke-width="2" stroke-miterlimit="10" x1="23.655" y1="181.812" x2="23.56" y2="242.825"/>
<line fill="none" stroke="#FFFFFF" stroke-width="2" stroke-miterlimit="10" x1="203.351" y1="303.382" x2="203.317" y2="332.588"/>
<line fill="none" stroke="#FFFFFF" stroke-width="2" stroke-miterlimit="10" x1="135.382" y1="267.645" x2="135.348" y2="289.062"/>
<g>
	<g>
		<g>
			<rect x="29.996" y="374.615" fill-rule="evenodd" clip-rule="evenodd" fill="#FFFFFF" width="2.475" height="1.5"/>
			<rect x="25.557" y="374.615" fill-rule="evenodd" clip-rule="evenodd" fill="#FFFFFF" width="2.475" height="1.5"/>
			<rect x="21.133" y="374.615" fill-rule="evenodd" clip-rule="evenodd" fill="#FFFFFF" width="2.475" height="1.5"/>
		</g>
	</g>
	<g>
		<g>
			<rect x="43.412" y="374.615" fill-rule="evenodd" clip-rule="evenodd" fill="#FFFFFF" width="2.475" height="1.5"/>
			<rect x="38.974" y="374.615" fill-rule="evenodd" clip-rule="evenodd" fill="#FFFFFF" width="2.475" height="1.5"/>
			<rect x="34.549" y="374.615" fill-rule="evenodd" clip-rule="evenodd" fill="#FFFFFF" width="2.475" height="1.5"/>
		</g>
	</g>
	<g>
		<g>
			<rect x="56.829" y="374.615" fill-rule="evenodd" clip-rule="evenodd" fill="#FFFFFF" width="2.475" height="1.5"/>
			<rect x="52.39" y="374.615" fill-rule="evenodd" clip-rule="evenodd" fill="#FFFFFF" width="2.475" height="1.5"/>
			<rect x="47.966" y="374.615" fill-rule="evenodd" clip-rule="evenodd" fill="#FFFFFF" width="2.475" height="1.5"/>
		</g>
	</g>
	<g>
		<g>
			<rect x="70.246" y="374.615" fill-rule="evenodd" clip-rule="evenodd" fill="#FFFFFF" width="2.475" height="1.5"/>
			<rect x="65.807" y="374.615" fill-rule="evenodd" clip-rule="evenodd" fill="#FFFFFF" width="2.475" height="1.5"/>
			<rect x="61.383" y="374.615" fill-rule="evenodd" clip-rule="evenodd" fill="#FFFFFF" width="2.475" height="1.5"/>
		</g>
	</g>
	<g>
		<g>
			<rect x="83.662" y="374.615" fill-rule="evenodd" clip-rule="evenodd" fill="#FFFFFF" width="2.475" height="1.5"/>
			<rect x="79.224" y="374.615" fill-rule="evenodd" clip-rule="evenodd" fill="#FFFFFF" width="2.475" height="1.5"/>
			<rect x="74.799" y="374.615" fill-rule="evenodd" clip-rule="evenodd" fill="#FFFFFF" width="2.475" height="1.5"/>
		</g>
	</g>
	<g>
		<g>
			<rect x="97.079" y="374.615" fill-rule="evenodd" clip-rule="evenodd" fill="#FFFFFF" width="2.475" height="1.5"/>
			<rect x="92.64" y="374.615" fill-rule="evenodd" clip-rule="evenodd" fill="#FFFFFF" width="2.475" height="1.5"/>
			<rect x="88.216" y="374.615" fill-rule="evenodd" clip-rule="evenodd" fill="#FFFFFF" width="2.475" height="1.5"/>
		</g>
	</g>
	<g>
		<g>
			<rect x="110.496" y="374.615" fill-rule="evenodd" clip-rule="evenodd" fill="#FFFFFF" width="2.475" height="1.5"/>
			<rect x="106.057" y="374.615" fill-rule="evenodd" clip-rule="evenodd" fill="#FFFFFF" width="2.475" height="1.5"/>
			<rect x="101.633" y="374.615" fill-rule="evenodd" clip-rule="evenodd" fill="#FFFFFF" width="2.475" height="1.5"/>
		</g>
	</g>
	<g>
		<g>
			<rect x="123.912" y="374.615" fill-rule="evenodd" clip-rule="evenodd" fill="#FFFFFF" width="2.475" height="1.5"/>
			<rect x="119.474" y="374.615" fill-rule="evenodd" clip-rule="evenodd" fill="#FFFFFF" width="2.475" height="1.5"/>
			<rect x="115.049" y="374.615" fill-rule="evenodd" clip-rule="evenodd" fill="#FFFFFF" width="2.475" height="1.5"/>
		</g>
	</g>
	<g>
		<g>
			<rect x="137.329" y="374.615" fill-rule="evenodd" clip-rule="evenodd" fill="#FFFFFF" width="2.475" height="1.5"/>
			<rect x="132.89" y="374.615" fill-rule="evenodd" clip-rule="evenodd" fill="#FFFFFF" width="2.475" height="1.5"/>
			<rect x="128.466" y="374.615" fill-rule="evenodd" clip-rule="evenodd" fill="#FFFFFF" width="2.475" height="1.5"/>
		</g>
	</g>
	<g>
		<g>
			<rect x="150.746" y="374.615" fill-rule="evenodd" clip-rule="evenodd" fill="#FFFFFF" width="2.475" height="1.5"/>
			<rect x="146.307" y="374.615" fill-rule="evenodd" clip-rule="evenodd" fill="#FFFFFF" width="2.475" height="1.5"/>
			<rect x="141.883" y="374.615" fill-rule="evenodd" clip-rule="evenodd" fill="#FFFFFF" width="2.475" height="1.5"/>
		</g>
	</g>
	<g>
		<g>
			<rect x="164.162" y="374.615" fill-rule="evenodd" clip-rule="evenodd" fill="#FFFFFF" width="2.475" height="1.5"/>
			<rect x="159.724" y="374.615" fill-rule="evenodd" clip-rule="evenodd" fill="#FFFFFF" width="2.475" height="1.5"/>
			<rect x="155.299" y="374.615" fill-rule="evenodd" clip-rule="evenodd" fill="#FFFFFF" width="2.475" height="1.5"/>
		</g>
	</g>
	<g>
		<g>
			<rect x="177.579" y="374.615" fill-rule="evenodd" clip-rule="evenodd" fill="#FFFFFF" width="2.475" height="1.5"/>
			<rect x="173.14" y="374.615" fill-rule="evenodd" clip-rule="evenodd" fill="#FFFFFF" width="2.475" height="1.5"/>
			<rect x="168.716" y="374.615" fill-rule="evenodd" clip-rule="evenodd" fill="#FFFFFF" width="2.475" height="1.5"/>
		</g>
	</g>
	<g>
		<g>
			<rect x="190.996" y="374.615" fill-rule="evenodd" clip-rule="evenodd" fill="#FFFFFF" width="2.475" height="1.5"/>
			<rect x="186.557" y="374.615" fill-rule="evenodd" clip-rule="evenodd" fill="#FFFFFF" width="2.475" height="1.5"/>
			<rect x="182.133" y="374.615" fill-rule="evenodd" clip-rule="evenodd" fill="#FFFFFF" width="2.475" height="1.5"/>
		</g>
	</g>
	<g>
		<g>
			<rect x="204.412" y="374.615" fill-rule="evenodd" clip-rule="evenodd" fill="#FFFFFF" width="2.475" height="1.5"/>
			<rect x="199.974" y="374.615" fill-rule="evenodd" clip-rule="evenodd" fill="#FFFFFF" width="2.475" height="1.5"/>
			<rect x="195.549" y="374.615" fill-rule="evenodd" clip-rule="evenodd" fill="#FFFFFF" width="2.475" height="1.5"/>
		</g>
	</g>
	<g>
		<g>
			<rect x="217.829" y="374.615" fill-rule="evenodd" clip-rule="evenodd" fill="#FFFFFF" width="2.475" height="1.5"/>
			<rect x="213.39" y="374.615" fill-rule="evenodd" clip-rule="evenodd" fill="#FFFFFF" width="2.475" height="1.5"/>
			<rect x="208.966" y="374.615" fill-rule="evenodd" clip-rule="evenodd" fill="#FFFFFF" width="2.475" height="1.5"/>
		</g>
	</g>
	<g>
		<g>
			<rect x="231.246" y="374.615" fill-rule="evenodd" clip-rule="evenodd" fill="#FFFFFF" width="2.475" height="1.5"/>
			<rect x="226.807" y="374.615" fill-rule="evenodd" clip-rule="evenodd" fill="#FFFFFF" width="2.475" height="1.5"/>
			<rect x="222.383" y="374.615" fill-rule="evenodd" clip-rule="evenodd" fill="#FFFFFF" width="2.475" height="1.5"/>
		</g>
	</g>
	<g>
		<g>
			<rect x="244.662" y="374.615" fill-rule="evenodd" clip-rule="evenodd" fill="#FFFFFF" width="2.475" height="1.5"/>
			<rect x="240.224" y="374.615" fill-rule="evenodd" clip-rule="evenodd" fill="#FFFFFF" width="2.475" height="1.5"/>
			<rect x="235.799" y="374.615" fill-rule="evenodd" clip-rule="evenodd" fill="#FFFFFF" width="2.475" height="1.5"/>
		</g>
	</g>
	<g>
		<g>
			<rect x="258.079" y="374.615" fill-rule="evenodd" clip-rule="evenodd" fill="#FFFFFF" width="2.475" height="1.5"/>
			<rect x="253.64" y="374.615" fill-rule="evenodd" clip-rule="evenodd" fill="#FFFFFF" width="2.475" height="1.5"/>
			<rect x="249.216" y="374.615" fill-rule="evenodd" clip-rule="evenodd" fill="#FFFFFF" width="2.475" height="1.5"/>
		</g>
	</g>
	<g>
		<g>
			<rect x="271.496" y="374.615" fill-rule="evenodd" clip-rule="evenodd" fill="#FFFFFF" width="2.475" height="1.5"/>
			<rect x="267.057" y="374.615" fill-rule="evenodd" clip-rule="evenodd" fill="#FFFFFF" width="2.475" height="1.5"/>
			<rect x="262.633" y="374.615" fill-rule="evenodd" clip-rule="evenodd" fill="#FFFFFF" width="2.475" height="1.5"/>
		</g>
	</g>
	<g>
		<g>
			<rect x="284.912" y="374.615" fill-rule="evenodd" clip-rule="evenodd" fill="#FFFFFF" width="2.475" height="1.5"/>
			<rect x="280.474" y="374.615" fill-rule="evenodd" clip-rule="evenodd" fill="#FFFFFF" width="2.475" height="1.5"/>
			<rect x="276.049" y="374.615" fill-rule="evenodd" clip-rule="evenodd" fill="#FFFFFF" width="2.475" height="1.5"/>
		</g>
	</g>
	<g>
		<g>
			<rect x="298.329" y="374.615" fill-rule="evenodd" clip-rule="evenodd" fill="#FFFFFF" width="2.475" height="1.5"/>
			<rect x="293.89" y="374.615" fill-rule="evenodd" clip-rule="evenodd" fill="#FFFFFF" width="2.475" height="1.5"/>
			<rect x="289.466" y="374.615" fill-rule="evenodd" clip-rule="evenodd" fill="#FFFFFF" width="2.475" height="1.5"/>
		</g>
	</g>
	<g>
		<g>
			<rect x="311.746" y="374.615" fill-rule="evenodd" clip-rule="evenodd" fill="#FFFFFF" width="2.475" height="1.5"/>
			<rect x="307.307" y="374.615" fill-rule="evenodd" clip-rule="evenodd" fill="#FFFFFF" width="2.475" height="1.5"/>
			<rect x="302.883" y="374.615" fill-rule="evenodd" clip-rule="evenodd" fill="#FFFFFF" width="2.475" height="1.5"/>
		</g>
	</g>
	<g>
		<g>
			<rect x="325.162" y="374.615" fill-rule="evenodd" clip-rule="evenodd" fill="#FFFFFF" width="2.475" height="1.5"/>
			<rect x="320.724" y="374.615" fill-rule="evenodd" clip-rule="evenodd" fill="#FFFFFF" width="2.475" height="1.5"/>
			<rect x="316.299" y="374.615" fill-rule="evenodd" clip-rule="evenodd" fill="#FFFFFF" width="2.475" height="1.5"/>
		</g>
	</g>
	<g>
		<g>
			<rect x="338.579" y="374.615" fill-rule="evenodd" clip-rule="evenodd" fill="#FFFFFF" width="2.475" height="1.5"/>
			<rect x="334.14" y="374.615" fill-rule="evenodd" clip-rule="evenodd" fill="#FFFFFF" width="2.475" height="1.5"/>
			<rect x="329.716" y="374.615" fill-rule="evenodd" clip-rule="evenodd" fill="#FFFFFF" width="2.475" height="1.5"/>
		</g>
	</g>
	<g>
		<g>
			<rect x="351.996" y="374.615" fill-rule="evenodd" clip-rule="evenodd" fill="#FFFFFF" width="2.475" height="1.5"/>
			<rect x="347.557" y="374.615" fill-rule="evenodd" clip-rule="evenodd" fill="#FFFFFF" width="2.475" height="1.5"/>
			<rect x="343.133" y="374.615" fill-rule="evenodd" clip-rule="evenodd" fill="#FFFFFF" width="2.475" height="1.5"/>
		</g>
	</g>
	<g>
		<g>
			<rect x="365.412" y="374.615" fill-rule="evenodd" clip-rule="evenodd" fill="#FFFFFF" width="2.475" height="1.5"/>
			<rect x="360.974" y="374.615" fill-rule="evenodd" clip-rule="evenodd" fill="#FFFFFF" width="2.475" height="1.5"/>
			<rect x="356.549" y="374.615" fill-rule="evenodd" clip-rule="evenodd" fill="#FFFFFF" width="2.475" height="1.5"/>
		</g>
	</g>
	<g>
		<g>
			<rect x="378.829" y="374.615" fill-rule="evenodd" clip-rule="evenodd" fill="#FFFFFF" width="2.475" height="1.5"/>
			<rect x="374.39" y="374.615" fill-rule="evenodd" clip-rule="evenodd" fill="#FFFFFF" width="2.475" height="1.5"/>
			<rect x="369.966" y="374.615" fill-rule="evenodd" clip-rule="evenodd" fill="#FFFFFF" width="2.475" height="1.5"/>
		</g>
	</g>
	<g>
		<g>
			<rect x="392.246" y="374.615" fill-rule="evenodd" clip-rule="evenodd" fill="#FFFFFF" width="2.475" height="1.5"/>
			<rect x="387.807" y="374.615" fill-rule="evenodd" clip-rule="evenodd" fill="#FFFFFF" width="2.475" height="1.5"/>
			<rect x="383.383" y="374.615" fill-rule="evenodd" clip-rule="evenodd" fill="#FFFFFF" width="2.475" height="1.5"/>
		</g>
	</g>
	<g>
		<g>
			<rect x="405.662" y="374.615" fill-rule="evenodd" clip-rule="evenodd" fill="#FFFFFF" width="2.475" height="1.5"/>
			<rect x="401.224" y="374.615" fill-rule="evenodd" clip-rule="evenodd" fill="#FFFFFF" width="2.475" height="1.5"/>
			<rect x="396.799" y="374.615" fill-rule="evenodd" clip-rule="evenodd" fill="#FFFFFF" width="2.475" height="1.5"/>
		</g>
	</g>
	<g>
		<g>
			<rect x="419.079" y="374.615" fill-rule="evenodd" clip-rule="evenodd" fill="#FFFFFF" width="2.475" height="1.5"/>
			<rect x="414.64" y="374.615" fill-rule="evenodd" clip-rule="evenodd" fill="#FFFFFF" width="2.475" height="1.5"/>
			<rect x="410.216" y="374.615" fill-rule="evenodd" clip-rule="evenodd" fill="#FFFFFF" width="2.475" height="1.5"/>
		</g>
	</g>
	<g>
		<g>
			<rect x="432.496" y="374.615" fill-rule="evenodd" clip-rule="evenodd" fill="#FFFFFF" width="2.475" height="1.5"/>
			<rect x="428.057" y="374.615" fill-rule="evenodd" clip-rule="evenodd" fill="#FFFFFF" width="2.475" height="1.5"/>
			<rect x="423.633" y="374.615" fill-rule="evenodd" clip-rule="evenodd" fill="#FFFFFF" width="2.475" height="1.5"/>
		</g>
	</g>
	<g>
		<g>
			<rect x="445.912" y="374.615" fill-rule="evenodd" clip-rule="evenodd" fill="#FFFFFF" width="2.475" height="1.5"/>
			<rect x="441.474" y="374.615" fill-rule="evenodd" clip-rule="evenodd" fill="#FFFFFF" width="2.475" height="1.5"/>
			<rect x="437.049" y="374.615" fill-rule="evenodd" clip-rule="evenodd" fill="#FFFFFF" width="2.475" height="1.5"/>
		</g>
	</g>
	<g>
		<g>
			<rect x="459.329" y="374.615" fill-rule="evenodd" clip-rule="evenodd" fill="#FFFFFF" width="2.475" height="1.5"/>
			<rect x="454.89" y="374.615" fill-rule="evenodd" clip-rule="evenodd" fill="#FFFFFF" width="2.475" height="1.5"/>
			<rect x="450.466" y="374.615" fill-rule="evenodd" clip-rule="evenodd" fill="#FFFFFF" width="2.475" height="1.5"/>
		</g>
	</g>
	<g>
		<g>
			<rect x="472.746" y="374.615" fill-rule="evenodd" clip-rule="evenodd" fill="#FFFFFF" width="2.475" height="1.5"/>
			<rect x="468.307" y="374.615" fill-rule="evenodd" clip-rule="evenodd" fill="#FFFFFF" width="2.475" height="1.5"/>
			<rect x="463.883" y="374.615" fill-rule="evenodd" clip-rule="evenodd" fill="#FFFFFF" width="2.475" height="1.5"/>
		</g>
	</g>
	<g>
		<g>
			<rect x="486.162" y="374.615" fill-rule="evenodd" clip-rule="evenodd" fill="#FFFFFF" width="2.475" height="1.5"/>
			<rect x="481.724" y="374.615" fill-rule="evenodd" clip-rule="evenodd" fill="#FFFFFF" width="2.475" height="1.5"/>
			<rect x="477.299" y="374.615" fill-rule="evenodd" clip-rule="evenodd" fill="#FFFFFF" width="2.475" height="1.5"/>
		</g>
	</g>
	<g>
		<g>
			<rect x="499.579" y="374.615" fill-rule="evenodd" clip-rule="evenodd" fill="#FFFFFF" width="2.475" height="1.5"/>
			<rect x="495.14" y="374.615" fill-rule="evenodd" clip-rule="evenodd" fill="#FFFFFF" width="2.475" height="1.5"/>
			<rect x="490.716" y="374.615" fill-rule="evenodd" clip-rule="evenodd" fill="#FFFFFF" width="2.475" height="1.5"/>
		</g>
	</g>
	<g>
		<g>
			<rect x="512.996" y="374.615" fill-rule="evenodd" clip-rule="evenodd" fill="#FFFFFF" width="2.475" height="1.5"/>
			<rect x="508.557" y="374.615" fill-rule="evenodd" clip-rule="evenodd" fill="#FFFFFF" width="2.475" height="1.5"/>
			<rect x="504.133" y="374.615" fill-rule="evenodd" clip-rule="evenodd" fill="#FFFFFF" width="2.475" height="1.5"/>
		</g>
	</g>
	<g>
		<g>
			<rect x="526.412" y="374.615" fill-rule="evenodd" clip-rule="evenodd" fill="#FFFFFF" width="2.475" height="1.5"/>
			<rect x="521.974" y="374.615" fill-rule="evenodd" clip-rule="evenodd" fill="#FFFFFF" width="2.475" height="1.5"/>
			<rect x="517.549" y="374.615" fill-rule="evenodd" clip-rule="evenodd" fill="#FFFFFF" width="2.475" height="1.5"/>
		</g>
	</g>
	<g>
		<g>
			<rect x="539.829" y="374.615" fill-rule="evenodd" clip-rule="evenodd" fill="#FFFFFF" width="2.475" height="1.5"/>
			<rect x="535.39" y="374.615" fill-rule="evenodd" clip-rule="evenodd" fill="#FFFFFF" width="2.475" height="1.5"/>
			<rect x="530.966" y="374.615" fill-rule="evenodd" clip-rule="evenodd" fill="#FFFFFF" width="2.475" height="1.5"/>
		</g>
	</g>
	<g>
		<g>
			<rect x="553.246" y="374.615" fill-rule="evenodd" clip-rule="evenodd" fill="#FFFFFF" width="2.475" height="1.5"/>
			<rect x="548.807" y="374.615" fill-rule="evenodd" clip-rule="evenodd" fill="#FFFFFF" width="2.475" height="1.5"/>
			<rect x="544.383" y="374.615" fill-rule="evenodd" clip-rule="evenodd" fill="#FFFFFF" width="2.475" height="1.5"/>
		</g>
	</g>
	<g>
		<g>
			<rect x="566.662" y="374.615" fill-rule="evenodd" clip-rule="evenodd" fill="#FFFFFF" width="2.475" height="1.5"/>
			<rect x="562.224" y="374.615" fill-rule="evenodd" clip-rule="evenodd" fill="#FFFFFF" width="2.475" height="1.5"/>
			<rect x="557.799" y="374.615" fill-rule="evenodd" clip-rule="evenodd" fill="#FFFFFF" width="2.475" height="1.5"/>
		</g>
	</g>
	<g>
		<g>
			<rect x="580.079" y="374.615" fill-rule="evenodd" clip-rule="evenodd" fill="#FFFFFF" width="2.475" height="1.5"/>
			<rect x="575.64" y="374.615" fill-rule="evenodd" clip-rule="evenodd" fill="#FFFFFF" width="2.475" height="1.5"/>
			<rect x="571.216" y="374.615" fill-rule="evenodd" clip-rule="evenodd" fill="#FFFFFF" width="2.475" height="1.5"/>
		</g>
	</g>
</g>
<line fill="none" stroke="#FFFFFF" stroke-width="2" stroke-miterlimit="10" x1="300.909" y1="88.833" x2="300.804" y2="245.812"/>
<line fill="none" stroke="#FFFFFF" stroke-width="2" stroke-miterlimit="10" x1="384.049" y1="330.728" x2="383.944" y2="509.601"/>
<line fill="none" stroke="#FFFFFF" stroke-width="2" stroke-miterlimit="10" x1="384.049" y1="614.776" x2="383.944" y2="683.812"/>
<line fill="none" stroke="#FFFFFF" stroke-width="2" stroke-miterlimit="10" x1="275.254" y1="503.292" x2="275.149" y2="594.432"/>
<line fill="none" stroke="#FFFFFF" stroke-width="2" stroke-miterlimit="10" x1="450.983" y1="503.292" x2="450.93" y2="548.862"/>
<line fill="none" stroke="#FFFFFF" stroke-width="2" stroke-miterlimit="10" x1="320.972" y1="546.94" x2="320.919" y2="593.8"/>
<line fill="none" stroke="#FFFFFF" stroke-width="2" stroke-miterlimit="10" x1="427.563" y1="509.601" x2="296.583" y2="509.496"/>
<line fill="none" stroke="#FFFFFF" stroke-width="2" stroke-miterlimit="10" x1="299.951" y1="243.21" x2="23.555" y2="243.105"/>
<line fill="none" stroke="#FFFFFF" stroke-width="2" stroke-miterlimit="10" x1="228.078" y1="140.486" x2="23.555" y2="140.409"/>
<line fill="none" stroke="#FFFFFF" stroke-width="2" stroke-miterlimit="10" x1="384.62" y1="331.588" x2="202.297" y2="331.483"/>
<line fill="none" stroke="#FFFFFF" stroke-width="2" stroke-miterlimit="10" x1="186.734" y1="287.85" x2="134.313" y2="287.745"/>
<line fill="none" stroke="#FFFFFF" stroke-width="2" stroke-miterlimit="10" x1="451.711" y1="548.045" x2="320.731" y2="547.94"/>
<line fill="none" stroke="#FFFFFF" stroke-width="2" stroke-miterlimit="10" x1="405.129" y1="593.906" x2="274.149" y2="593.8"/>
<polygon fill="#FFFFFF" points="226.484,140.486 226.484,135.6 230.715,138.043 234.946,140.486 230.715,142.929 226.484,145.372 
	"/>
</svg>
