<?xml version="1.0" encoding="utf-8"?>
<!-- Generator: Adobe Illustrator 16.0.0, SVG Export Plug-In . SVG Version: 6.00 Build 0)  -->
<!DOCTYPE svg PUBLIC "-//W3C//DTD SVG 1.1//EN" "http://www.w3.org/Graphics/SVG/1.1/DTD/svg11.dtd">
<svg version="1.1" id="Capa_1" xmlns="http://www.w3.org/2000/svg" xmlns:xlink="http://www.w3.org/1999/xlink" x="0px" y="0px"
	 width="612px" height="792px" viewBox="0 0 612 792" enable-background="new 0 0 612 792" xml:space="preserve">
<line fill="none" stroke="#FFFFFF" stroke-width="2" stroke-miterlimit="10" x1="370.49" y1="373.273" x2="370.456" y2="398.25"/>
<line fill="none" stroke="#FFFFFF" stroke-width="2" stroke-miterlimit="10" x1="93.494" y1="149.451" x2="93.46" y2="164.054"/>
<line fill="none" stroke="#FFFFFF" stroke-width="2" stroke-miterlimit="10" x1="93.525" y1="192" x2="93.43" y2="253.014"/>
<line fill="none" stroke="#FFFFFF" stroke-width="2" stroke-miterlimit="10" x1="273.221" y1="313.57" x2="273.186" y2="342.777"/>
<line fill="none" stroke="#FFFFFF" stroke-width="2" stroke-miterlimit="10" x1="205.252" y1="277.833" x2="205.218" y2="299.25"/>
<line fill="none" stroke="#FFFFFF" stroke-width="2" stroke-miterlimit="10" x1="370.779" y1="99.022" x2="370.674" y2="256"/>
<line fill="none" stroke="#FFFFFF" stroke-width="2" stroke-miterlimit="10" x1="453.919" y1="340.917" x2="453.814" y2="470.667"/>
<line fill="none" stroke="#FFFFFF" stroke-width="2" stroke-miterlimit="10" x1="453.919" y1="624.964" x2="453.814" y2="694"/>
<line fill="none" stroke="#FFFFFF" stroke-width="2" stroke-miterlimit="10" x1="312.799" y1="470.53" x2="312.693" y2="604.62"/>
<line fill="none" stroke="#FFFFFF" stroke-width="2" stroke-miterlimit="10" x1="154.822" y1="470.53" x2="154.717" y2="558.051"/>
<line fill="none" stroke="#FFFFFF" stroke-width="2" stroke-miterlimit="10" x1="520.8" y1="470.804" x2="154.717" y2="470.53"/>
<line fill="none" stroke="#FFFFFF" stroke-width="2" stroke-miterlimit="10" x1="345.705" y1="558.205" x2="154.319" y2="558.051"/>
<line fill="none" stroke="#FFFFFF" stroke-width="2" stroke-miterlimit="10" x1="369.82" y1="253.398" x2="93.425" y2="253.293"/>
<line fill="none" stroke="#FFFFFF" stroke-width="2" stroke-miterlimit="10" x1="297.948" y1="150.675" x2="93.425" y2="150.597"/>
<line fill="none" stroke="#FFFFFF" stroke-width="2" stroke-miterlimit="10" x1="454.49" y1="341.776" x2="272.167" y2="341.671"/>
<line fill="none" stroke="#FFFFFF" stroke-width="2" stroke-miterlimit="10" x1="370.49" y1="420.023" x2="370.456" y2="434.626"/>
<line fill="none" stroke="#FFFFFF" stroke-width="2" stroke-miterlimit="10" x1="453.971" y1="434.626" x2="369.436" y2="434.521"/>
<line fill="none" stroke="#FFFFFF" stroke-width="2" stroke-miterlimit="10" x1="256.603" y1="298.038" x2="204.183" y2="297.933"/>
<line fill="none" stroke="#FFFFFF" stroke-width="2" stroke-miterlimit="10" x1="474.999" y1="604.094" x2="311.5" y2="603.989"/>
<polygon fill="#FFFFFF" points="296.353,150.675 296.353,145.789 300.585,148.232 304.816,150.675 300.585,153.118 296.353,155.56 
	"/>
<polygon fill="#FFFFFF" points="370.49,378.862 365.604,378.862 368.047,374.631 370.49,370.4 372.934,374.631 375.376,378.862 "/>
</svg>
