<?xml version="1.0" encoding="utf-8"?>
<!-- Generator: Adobe Illustrator 16.0.0, SVG Export Plug-In . SVG Version: 6.00 Build 0)  -->
<!DOCTYPE svg PUBLIC "-//W3C//DTD SVG 1.1//EN" "http://www.w3.org/Graphics/SVG/1.1/DTD/svg11.dtd">
<svg version="1.1" id="Capa_1" xmlns="http://www.w3.org/2000/svg" xmlns:xlink="http://www.w3.org/1999/xlink" x="0px" y="0px"
	 width="512px" height="512px" viewBox="0 0 512 512" enable-background="new 0 0 512 512" xml:space="preserve">
<path id="coin-3-icon_1_" fill="#FFFFFF" d="M256,50C142.229,50,50,142.229,50,256c0,113.771,92.229,206,206,206
	c113.771,0,206-92.229,206-206C462,142.229,369.771,50,256,50z M256,432.336c-97.388,0-176.336-78.947-176.336-176.336
	c0-97.388,78.948-176.336,176.336-176.336c97.389,0,176.336,78.948,176.336,176.336C432.336,353.389,353.389,432.336,256,432.336z
	 M256,99.664c-86.402,0-156.336,69.922-156.336,156.336c0,86.402,69.922,156.336,156.336,156.336
	c86.4,0,156.336-69.92,156.336-156.336C412.336,169.598,342.414,99.664,256,99.664z M274.236,336.59v20.017h-28.635v-17.902
	c-13.744-1.176-31.894-6.158-45.267-13.525l9.475-33.002c15.144,5.906,37.237,13.334,53.575,9.769
	c14.291-3.117,17.894-15.947,1.073-23.197c-14.206-6.379-63.095-13.048-63.095-53.934c0-16.938,12.696-40.218,44.238-47.104v-20.312
	h28.636v18.64c12.271,0.843,24.789,3.11,39.246,7.63c-1.446,6.316-7.694,33.726-7.694,33.726c-9.981-3.396-26.3-9.336-41.965-8.456
	c-19.355,1.088-20.742,15.223-7.693,21.749c26.769,12.105,65.535,22.398,65.535,58.5
	C321.703,317.084,299.969,332.973,274.236,336.59z"/>
</svg>
